<?xml version="1.0" encoding="UTF-8" standalone="no"?><!-- Generator: Gravit.io --><svg xmlns="http://www.w3.org/2000/svg" xmlns:xlink="http://www.w3.org/1999/xlink" style="isolation:isolate" viewBox="0 0 69 69" width="69pt" height="69pt"><defs><clipPath id="_clipPath_KFeiDHEoMhL4ttjFffQ1OUjNA6cuxVFk"><rect width="69" height="69"/></clipPath></defs><g clip-path="url(#_clipPath_KFeiDHEoMhL4ttjFffQ1OUjNA6cuxVFk)"><rect width="69" height="69" style="fill:rgb(0,0,0)"/><g><path d=" M 48.427 25.023 C 47.625 25.023 46.871 25.19 46.289 25.477 C 46.365 25.47 46.432 25.47 46.508 25.47 C 48.808 25.47 50.785 26.447 51.51 27.826 C 51.701 27.576 51.806 27.303 51.806 27.015 C 51.806 25.917 50.288 25.023 48.427 25.023 L 48.427 25.023 Z " fill="rgb(255,255,255)"/><path d=" M 34.5 9.5 C 17.127 9.5 3 20.712 3 34.5 C 3 48.28 17.127 59.5 34.5 59.5 C 51.873 59.5 66 48.28 66 34.5 C 66 20.712 51.873 9.5 34.5 9.5 Z  M 15.037 21.742 C 14.798 21.364 14.999 20.909 15.467 20.727 C 15.724 20.629 21.757 18.288 25.823 20.811 C 26.243 21.061 26.32 21.538 25.995 21.871 C 25.671 22.197 25.069 22.258 24.649 22 C 21.528 20.068 16.364 22.061 16.316 22.083 C 16.183 22.136 16.039 22.159 15.896 22.159 C 15.543 22.159 15.2 22.008 15.037 21.742 L 15.037 21.742 Z  M 15.285 27.015 C 15.285 26.925 15.295 26.841 15.304 26.758 C 15.285 26.636 15.304 26.515 15.371 26.409 C 15.801 24.765 17.967 23.508 20.564 23.508 C 23.485 23.508 25.852 25.083 25.852 27.015 C 25.852 28.947 23.485 30.515 20.564 30.515 C 17.653 30.515 15.285 28.947 15.285 27.015 L 15.285 27.015 Z  M 34.5 52.485 C 27.064 52.485 21.709 49.311 18.979 45.599 C 22.368 47.242 27.428 48.788 34.5 48.788 C 41.526 48.788 46.556 47.28 49.926 45.682 C 47.282 49.204 42.184 52.485 34.5 52.485 Z  M 48.427 30.515 C 45.516 30.515 43.148 28.947 43.148 27.015 C 43.148 26.924 43.158 26.841 43.167 26.758 C 43.148 26.636 43.167 26.515 43.234 26.409 C 43.664 24.765 45.831 23.508 48.427 23.508 C 51.348 23.508 53.715 25.083 53.715 27.015 C 53.715 28.947 51.348 30.515 48.427 30.515 L 48.427 30.515 Z  M 53.963 21.742 C 53.725 22.114 53.152 22.265 52.684 22.083 C 52.626 22.061 47.453 20.076 44.351 22 C 44.17 22.106 43.969 22.159 43.759 22.159 C 43.473 22.159 43.196 22.061 43.005 21.871 C 42.68 21.538 42.757 21.061 43.167 20.811 C 47.234 18.288 53.276 20.629 53.533 20.727 C 54.001 20.909 54.192 21.364 53.963 21.742 L 53.963 21.742 Z " fill="rgb(255,255,255)"/><path d=" M 23.647 27.826 C 23.838 27.576 23.943 27.303 23.943 27.015 C 23.943 25.917 22.425 25.023 20.564 25.023 C 19.752 25.023 19.007 25.189 18.426 25.477 C 18.502 25.47 18.569 25.47 18.645 25.47 C 20.945 25.47 22.921 26.447 23.647 27.826 L 23.647 27.826 Z " fill="rgb(255,255,255)"/></g></g></svg>