<?xml version="1.0" encoding="UTF-8" standalone="no"?><!-- Generator: Gravit.io --><svg xmlns="http://www.w3.org/2000/svg" xmlns:xlink="http://www.w3.org/1999/xlink" style="isolation:isolate" viewBox="0 0 144 144" width="144pt" height="144pt"><defs><clipPath id="_clipPath_lsFYZEQeNMoiYTx3Dxl6Xwt6CP8WrDES"><rect width="144" height="144"/></clipPath></defs><g clip-path="url(#_clipPath_lsFYZEQeNMoiYTx3Dxl6Xwt6CP8WrDES)"><rect width="144" height="144" style="fill:rgb(0,0,0)"/><path d=" M 103.17 55.036 C 101.374 55.036 99.688 55.334 98.385 55.849 C 98.556 55.836 98.705 55.836 98.876 55.836 C 104.024 55.836 108.447 57.585 110.07 60.053 C 110.497 59.606 110.732 59.118 110.732 58.602 C 110.732 56.636 107.335 55.036 103.17 55.036 L 103.17 55.036 Z  M 72 27.25 C 33.118 27.25 1.5 47.32 1.5 72 C 1.5 96.667 33.118 116.75 72 116.75 C 110.882 116.75 142.5 96.667 142.5 72 C 142.5 47.32 110.882 27.25 72 27.25 Z  M 28.44 49.164 C 27.905 48.486 28.354 47.672 29.401 47.347 C 29.978 47.171 43.481 42.98 52.581 47.496 C 53.521 47.944 53.692 48.798 52.965 49.395 C 52.239 49.978 50.893 50.086 49.954 49.625 C 42.968 46.167 31.41 49.734 31.303 49.774 C 31.004 49.869 30.683 49.91 30.363 49.91 C 29.573 49.91 28.804 49.639 28.44 49.164 L 28.44 49.164 Z  M 28.996 58.602 C 28.996 58.44 29.017 58.29 29.038 58.141 C 28.996 57.924 29.038 57.708 29.187 57.518 C 30.149 54.575 34.998 52.324 40.809 52.324 C 47.347 52.324 52.645 55.144 52.645 58.602 C 52.645 62.06 47.347 64.867 40.809 64.867 C 34.294 64.867 28.996 62.06 28.996 58.602 L 28.996 58.602 Z  M 72.001 104.193 C 55.358 104.193 43.373 98.511 37.263 91.866 C 44.848 94.809 56.171 97.575 72.001 97.575 C 87.724 97.575 98.983 94.877 106.524 92.015 C 100.606 98.321 89.197 104.193 72.001 104.193 Z  M 103.17 64.867 C 96.655 64.867 91.355 62.06 91.355 58.602 C 91.355 58.44 91.377 58.29 91.398 58.141 C 91.355 57.924 91.398 57.707 91.548 57.517 C 92.51 54.575 97.359 52.323 103.17 52.323 C 109.708 52.323 115.006 55.144 115.006 58.602 C 115.006 62.06 109.708 64.867 103.17 64.867 L 103.17 64.867 Z  M 115.56 49.164 C 115.026 49.829 113.744 50.099 112.697 49.774 C 112.569 49.734 100.991 46.181 94.048 49.625 C 93.642 49.815 93.193 49.91 92.723 49.91 C 92.082 49.91 91.463 49.734 91.035 49.395 C 90.308 48.798 90.479 47.943 91.398 47.496 C 100.499 42.98 114.022 47.171 114.599 47.347 C 115.646 47.672 116.074 48.486 115.56 49.164 L 115.56 49.164 Z  M 47.71 60.053 C 48.137 59.606 48.372 59.118 48.372 58.602 C 48.372 56.636 44.975 55.035 40.809 55.035 C 38.993 55.035 37.326 55.334 36.024 55.849 C 36.195 55.836 36.345 55.836 36.516 55.836 C 41.662 55.836 46.085 57.585 47.71 60.053 L 47.71 60.053 Z " fill-rule="evenodd" fill="rgb(255,255,255)"/></g></svg>