<?xml version="1.0" encoding="UTF-8" standalone="no"?><!-- Generator: Gravit.io --><svg xmlns="http://www.w3.org/2000/svg" xmlns:xlink="http://www.w3.org/1999/xlink" style="isolation:isolate" viewBox="0 0 512 512" width="512pt" height="512pt"><defs><clipPath id="_clipPath_d1tcmLja0Eqm8cKUEKEcqT8lJW7SJNWo"><rect width="512" height="512"/></clipPath></defs><g clip-path="url(#_clipPath_d1tcmLja0Eqm8cKUEKEcqT8lJW7SJNWo)"><rect width="512" height="512" style="fill:rgb(0,0,0)" fill-opacity="0"/><linearGradient id="_lgradient_0" x1="0" y1="0.5" x2="1" y2="0.5" gradientTransform="matrix(512,0,0,223,0,144.5)" gradientUnits="userSpaceOnUse"><stop offset="1.25%" stop-opacity="1" style="stop-color:rgb(0,255,221)"/><stop offset="100%" stop-opacity="1" style="stop-color:rgb(208,0,255)"/></linearGradient><path d=" M 369.183 213.731 C 362.664 213.731 356.539 214.475 351.808 215.759 C 352.429 215.726 352.971 215.726 353.592 215.726 C 372.285 215.726 388.346 220.083 394.24 226.234 C 395.789 225.118 396.645 223.902 396.645 222.617 C 396.645 217.719 384.308 213.731 369.183 213.731 L 369.183 213.731 Z  M 256 144.5 C 114.812 144.5 0 194.506 0 256 C 0 317.46 114.812 367.5 256 367.5 C 397.188 367.5 512 317.46 512 256 C 512 194.506 397.188 144.5 256 144.5 Z  M 97.823 199.101 C 95.884 197.412 97.512 195.384 101.315 194.574 C 103.41 194.135 152.441 183.694 185.486 194.945 C 188.899 196.061 189.52 198.189 186.88 199.677 C 184.244 201.129 179.357 201.399 175.945 200.251 C 150.578 191.634 108.608 200.522 108.221 200.622 C 107.134 200.858 105.971 200.96 104.808 200.96 C 101.937 200.96 99.146 200.284 97.824 199.101 L 97.823 199.101 Z  M 99.842 222.618 C 99.842 222.213 99.921 221.841 99.997 221.469 C 99.842 220.928 99.997 220.389 100.539 219.915 C 104.031 212.584 121.638 206.974 142.74 206.974 C 166.478 206.974 185.717 214.002 185.717 222.617 C 185.717 231.234 166.478 238.228 142.74 238.228 C 119.081 238.228 99.843 231.234 99.843 222.617 L 99.842 222.618 Z  M 256.002 336.212 C 195.57 336.212 152.05 322.055 129.864 305.5 C 157.405 312.831 198.523 319.724 256.002 319.724 C 313.097 319.724 353.98 313 381.364 305.871 C 359.876 321.582 318.448 336.212 256.002 336.212 Z  M 369.185 238.228 C 345.526 238.228 326.284 231.234 326.284 222.617 C 326.284 222.213 326.363 221.84 326.439 221.469 C 326.284 220.928 326.439 220.388 326.984 219.915 C 330.477 212.583 348.083 206.974 369.186 206.974 C 392.924 206.974 412.163 214.002 412.163 222.617 C 412.163 231.234 392.924 238.227 369.186 238.227 L 369.185 238.228 Z  M 414.177 199.101 C 412.238 200.757 407.582 201.432 403.779 200.622 C 403.313 200.521 361.271 191.669 336.059 200.251 C 334.586 200.723 332.957 200.96 331.249 200.96 C 328.923 200.96 326.673 200.521 325.12 199.677 C 322.48 198.188 323.101 196.06 326.438 194.945 C 359.487 183.693 408.59 194.135 410.684 194.574 C 414.487 195.384 416.04 197.411 414.177 199.101 L 414.177 199.101 Z  M 167.796 226.233 C 169.349 225.118 170.202 223.902 170.202 222.617 C 170.202 217.718 157.868 213.731 142.74 213.731 C 136.145 213.731 130.092 214.475 125.365 215.758 C 125.986 215.725 126.528 215.725 127.149 215.725 C 145.838 215.725 161.899 220.082 167.797 226.233 L 167.796 226.233 Z " fill-rule="evenodd" fill="url(#_lgradient_0)"/></g></svg>